<?xml version="1.0" standalone="no"?>
<!DOCTYPE svg PUBLIC "-//W3C//DTD SVG 20010904//EN"
 "http://www.w3.org/TR/2001/REC-SVG-20010904/DTD/svg10.dtd">
<svg version="1.0" xmlns="http://www.w3.org/2000/svg"
 width="1111.000000pt" height="128.000000pt" viewBox="0 0 1111.000000 128.000000"
 preserveAspectRatio="xMidYMid meet">
<metadata>
Created by potrace 1.15, written by Peter Selinger 2001-2017
</metadata>
<g transform="translate(0.000000,128.000000) scale(0.100000,-0.100000)"
fill="#000000" stroke="none">
<path d="M3380 1095 c0 -36 3 -38 65 -47 19 -3 20 -12 23 -320 l2 -317 -45 -7
c-46 -6 -46 -7 -43 -43 l3 -36 138 -3 137 -3 0 39 c0 38 -1 40 -40 46 l-40 6
2 172 c3 171 3 171 29 190 60 45 152 40 185 -10 16 -23 19 -52 22 -189 l4
-161 -47 -7 c-46 -7 -46 -8 -43 -44 l3 -36 138 -3 137 -3 0 39 c0 38 -1 40
-40 46 l-40 6 0 145 c0 167 -11 233 -48 277 -66 79 -192 89 -272 22 l-30 -26
0 151 0 151 -100 0 -100 0 0 -35z"/>
<path d="M4770 1095 c0 -30 4 -35 28 -41 15 -3 33 -7 40 -10 9 -2 12 -75 12
-318 l0 -314 -40 -7 c-39 -7 -40 -8 -40 -46 l0 -39 135 0 135 0 0 39 c0 38 -1
39 -40 46 l-40 7 0 161 c1 112 4 167 13 178 36 47 125 67 176 40 41 -22 51
-67 51 -230 l0 -149 -40 -7 c-39 -7 -40 -8 -40 -46 l0 -39 135 0 135 0 0 39
c0 38 -1 39 -39 46 l-39 6 -4 177 c-3 159 -5 181 -25 218 -26 48 -55 69 -118
86 -55 15 -122 0 -172 -38 l-33 -25 0 150 0 151 -95 0 -95 0 0 -35z"/>
<path d="M7730 1095 c0 -36 3 -38 65 -47 19 -3 20 -12 23 -320 l2 -317 -45 -7
c-46 -6 -46 -7 -43 -43 l3 -36 138 -3 137 -3 0 39 c0 38 -1 40 -40 46 -39 6
-40 7 -40 49 0 37 6 48 40 82 39 38 41 39 54 20 8 -11 37 -49 65 -85 50 -64
50 -65 26 -68 -22 -3 -25 -8 -25 -43 l0 -39 130 0 130 0 0 38 c0 38 -1 39 -44
48 -41 8 -51 17 -134 124 l-91 115 77 77 c54 56 86 80 109 84 31 6 33 9 33 45
l0 39 -120 0 -120 0 0 -39 c0 -35 3 -40 25 -43 24 -3 19 -10 -65 -93 l-90 -90
0 253 0 252 -100 0 -100 0 0 -35z"/>
<path d="M1822 1043 c3 -35 5 -38 46 -46 l42 -8 0 -288 0 -288 -42 -9 c-41 -9
-43 -11 -43 -44 l0 -35 138 -3 137 -3 0 40 c0 38 0 39 -45 45 l-45 7 0 246 c0
136 2 244 4 242 2 -2 57 -127 121 -277 l118 -272 36 0 37 0 114 273 c62 149
115 274 117 276 1 2 3 -106 3 -241 l0 -246 -40 -7 c-39 -7 -40 -8 -40 -46 l0
-39 135 0 135 0 0 39 c0 38 -1 39 -40 46 l-40 7 0 288 c0 313 -2 300 56 300
21 0 24 4 24 40 l0 41 -116 -3 -117 -3 -111 -272 c-61 -150 -114 -273 -117
-273 -3 0 -58 123 -122 273 l-115 272 -117 3 -116 3 3 -38z"/>
<path d="M5722 1043 c3 -35 5 -38 46 -46 l42 -8 0 -288 0 -288 -42 -9 c-41 -9
-43 -11 -43 -44 l0 -35 138 -3 137 -3 0 40 c0 38 0 39 -45 45 l-45 7 0 247 c0
137 4 240 9 232 5 -8 59 -133 121 -277 l113 -263 37 0 37 0 113 273 c62 149
115 274 116 276 2 2 4 -106 4 -241 l0 -246 -40 -7 c-39 -7 -40 -8 -40 -46 l0
-39 135 0 135 0 0 39 c0 38 -1 39 -40 46 l-40 7 0 288 c0 313 -2 300 56 300
21 0 24 4 24 40 l0 41 -116 -3 -116 -3 -111 -272 c-62 -150 -115 -273 -118
-273 -3 0 -58 123 -121 273 l-115 272 -117 3 -117 3 3 -38z"/>
<path d="M4470 955 l0 -65 -45 0 -45 0 0 -45 0 -45 45 0 45 0 0 -197 c0 -178
2 -201 20 -230 29 -49 53 -57 160 -54 62 2 74 11 66 53 l-6 35 -48 -5 c-80 -7
-82 -2 -82 213 l0 184 58 3 57 3 0 40 0 40 -57 3 -58 3 0 64 0 65 -55 0 -55 0
0 -65z"/>
<path d="M8970 956 l0 -65 -42 -3 c-43 -3 -43 -3 -43 -43 0 -40 0 -40 43 -43
l42 -3 0 -177 c0 -97 5 -193 10 -213 20 -73 82 -102 184 -88 32 4 59 9 61 11
2 2 0 19 -4 38 -7 34 -7 34 -58 31 -79 -4 -83 6 -83 221 l0 178 60 0 60 0 0
45 0 45 -60 0 -60 0 0 65 0 65 -55 0 -55 0 0 -64z"/>
<path d="M3020 891 c-78 -25 -127 -70 -162 -146 -18 -40 -22 -68 -22 -140 0
-72 4 -100 22 -140 47 -103 117 -149 227 -149 110 0 180 46 227 149 18 40 22
68 22 140 0 72 -4 100 -22 140 -28 60 -64 100 -114 126 -42 22 -140 33 -178
20z m128 -101 c96 -59 103 -282 12 -365 -16 -15 -36 -20 -77 -20 -50 0 -57 3
-88 36 -49 54 -65 141 -44 239 23 110 114 160 197 110z"/>
<path d="M6871 885 c-29 -8 -66 -23 -82 -32 -27 -16 -29 -21 -29 -85 l0 -68
45 0 c45 0 45 0 51 41 6 35 12 43 43 56 22 10 52 13 80 10 60 -7 91 -41 91
-101 l0 -43 -94 -6 c-72 -4 -106 -11 -143 -29 -81 -41 -118 -120 -93 -201 37
-125 208 -154 318 -54 l22 20 0 -20 c0 -48 8 -53 86 -53 l74 0 0 40 c0 36 -2
40 -25 40 l-25 0 0 144 c0 159 -11 239 -38 276 -48 65 -175 95 -281 65z m199
-358 c0 -59 -19 -86 -73 -106 -35 -14 -102 -14 -127 -1 -46 25 -25 115 33 144
19 9 59 16 100 16 l67 0 0 -53z"/>
<path d="M7592 893 c-12 -2 -38 -19 -57 -37 -28 -27 -35 -30 -35 -15 0 45 -8
49 -101 49 l-89 0 0 -39 c0 -37 1 -39 40 -45 l40 -6 0 -195 0 -195 -40 -6
c-39 -6 -40 -8 -40 -46 l0 -39 138 3 137 3 0 35 c0 33 -2 35 -42 44 l-43 9 0
154 0 155 34 34 c31 31 40 34 90 34 60 0 58 -3 69 72 5 35 -27 45 -101 31z"/>
<path d="M8535 884 c-48 -18 -109 -75 -138 -129 -25 -49 -36 -194 -18 -258 18
-64 72 -131 128 -158 86 -42 247 -25 298 30 15 18 15 22 0 50 -19 37 -23 37
-72 9 -51 -30 -146 -32 -185 -3 -31 23 -57 70 -65 121 l-6 34 182 0 181 0 0
63 c0 127 -54 212 -152 242 -63 18 -100 18 -153 -1z m156 -111 c15 -15 31 -45
34 -65 l7 -38 -121 0 c-136 0 -137 0 -101 70 11 22 32 46 48 55 40 22 99 13
133 -22z"/>
<path d="M9894 882 c-23 -11 -50 -30 -62 -42 l-21 -22 -6 36 -7 36 -89 0 -89
0 0 -39 c0 -37 1 -39 40 -45 l40 -6 0 -194 0 -194 -40 -7 c-39 -7 -40 -8 -40
-46 l0 -40 138 3 137 3 0 35 c0 33 -2 35 -42 44 l-43 9 0 158 c0 154 0 158 26
188 46 55 141 62 186 14 22 -23 23 -33 26 -193 l3 -168 -40 -7 c-40 -7 -41 -8
-41 -46 l0 -39 135 0 135 0 0 39 c0 38 -1 39 -39 46 l-39 6 -4 183 c-3 180 -3
183 -30 224 -34 50 -73 72 -142 78 -37 4 -62 0 -92 -14z"/>
<path d="M10462 889 c-53 -16 -115 -85 -137 -154 -23 -71 -26 -200 -6 -260 48
-146 200 -208 316 -129 l35 23 0 -45 c0 -52 -21 -98 -52 -115 -30 -16 -128
-13 -173 5 -21 9 -38 16 -40 16 -1 0 -7 -19 -14 -42 -16 -52 -8 -60 79 -78
132 -28 241 11 289 105 25 49 26 54 29 318 l4 268 29 6 c26 5 29 9 29 44 l0
39 -80 0 c-77 0 -80 -1 -80 -23 0 -35 -9 -38 -38 -12 -42 39 -122 53 -190 34z
m128 -89 c10 0 32 -12 49 -26 l31 -26 0 -140 0 -140 -29 -29 c-53 -52 -154
-40 -196 24 -42 64 -36 218 10 289 24 37 73 61 103 52 8 -2 22 -4 32 -4z"/>
<path d="M4070 851 c0 -37 1 -39 40 -45 l40 -6 0 -194 0 -194 -40 -7 c-39 -7
-40 -8 -40 -46 l0 -39 135 0 135 0 0 39 c0 38 -1 39 -40 46 l-40 7 0 239 0
239 -95 0 -95 0 0 -39z"/>
<path d="M9280 851 c0 -37 1 -39 40 -45 l40 -6 0 -195 0 -195 -40 -6 c-39 -6
-40 -8 -40 -46 l0 -39 138 3 137 3 3 36 c3 36 3 37 -42 43 l-46 7 0 240 0 239
-95 0 -95 0 0 -39z"/>
</g>
</svg>
